<?xml version="1.0" standalone="no"?><!DOCTYPE svg PUBLIC "-//W3C//DTD SVG 1.1//EN" "http://www.w3.org/Graphics/SVG/1.1/DTD/svg11.dtd">
<svg t="1495688372223" class="icon" style="" viewBox="0 0 1024 1024" version="1.1" xmlns="http://www.w3.org/2000/svg" p-id="1575" xmlns:xlink="http://www.w3.org/1999/xlink" width="200" height="200">
	<defs>
		<style type="text/css">
		</style>
	</defs>
	<path d="M128 768V256h102.4v307.2S512 501.76 747.52 245.76h87.04c-56.32 194.56-440.32 358.4-552.96 419.84-61.44 35.84-51.2 46.08-51.2 102.4h-102.4z" fill="#ffffff" p-id="1576"></path>
	<path d="M179.2 716.8c-87.04 0-153.6 66.56-153.6 153.6s66.56 153.6 153.6 153.6 153.6-66.56 153.6-153.6-66.56-153.6-153.6-153.6z m51.2 204.8h-102.4v-102.4h102.4v102.4zM179.2 0c-87.04 0-153.6 66.56-153.6 153.6s66.56 153.6 153.6 153.6 153.6-66.56 153.6-153.6-66.56-153.6-153.6-153.6z m51.2 204.8h-102.4V102.4h102.4v102.4zM844.8 0c-87.04 0-153.6 66.56-153.6 153.6s66.56 153.6 153.6 153.6 153.6-66.56 153.6-153.6-66.56-153.6-153.6-153.6z m51.2 204.8h-102.4V102.4h102.4v102.4z" p-id="1577" fill="#ffffff" id="branch">
	</path>
</svg>