<?xml version="1.0" standalone="no"?><!DOCTYPE svg PUBLIC "-//W3C//DTD SVG 1.1//EN" "http://www.w3.org/Graphics/SVG/1.1/DTD/svg11.dtd"><svg t="1496407117050" class="icon" style="" viewBox="0 0 1024 1024" version="1.1" xmlns="http://www.w3.org/2000/svg" p-id="14666" xmlns:xlink="http://www.w3.org/1999/xlink" width="200" height="200"><defs><style type="text/css"></style></defs><path d="M784.699077 496.955077C778.633846 482.225231 764.219077 472.615385 748.307692 472.615385l-472.615385 0C259.780923 472.615385 245.366154 482.225231 239.300923 496.955077 233.156923 511.606154 236.544 528.620308 247.808 539.884308l236.307692 236.307692C491.835077 783.832615 501.917538 787.692308 512 787.692308s20.164923-3.859692 27.884308-11.500308l236.307692-236.307692C787.377231 528.620308 790.764308 511.606154 784.699077 496.955077z" p-id="14667" fill="#ffffff"></path><path d="M512 0c-43.480615 0-78.769231 35.209846-78.769231 78.769231l0 393.846154c0 43.559385 35.288615 78.769231 78.769231 78.769231 43.559385 0 78.769231-35.209846 78.769231-78.769231L590.769231 78.769231C590.769231 35.209846 555.559385 0 512 0z" p-id="14668" fill="#ffffff"></path><path d="M945.230769 866.461538 78.769231 866.461538c-43.480615 0-78.769231 35.209846-78.769231 78.769231s35.288615 78.769231 78.769231 78.769231l866.461538 0c43.559385 0 78.769231-35.209846 78.769231-78.769231S988.790154 866.461538 945.230769 866.461538z" p-id="14669" fill="#ffffff"></path></svg>