<?xml version="1.0" standalone="no"?><!DOCTYPE svg PUBLIC "-//W3C//DTD SVG 1.1//EN" "http://www.w3.org/Graphics/SVG/1.1/DTD/svg11.dtd"><svg t="1496339395026" class="icon" style="" viewBox="0 0 1024 1024" version="1.1" xmlns="http://www.w3.org/2000/svg" p-id="11154" xmlns:xlink="http://www.w3.org/1999/xlink" width="200" height="200"><defs><style type="text/css"></style></defs><path d="M892.928 128q28.672 0 48.64 19.968t19.968 48.64l0 52.224q0 28.672-19.968 48.64t-48.64 19.968l-759.808 0q-28.672 0-48.64-19.968t-19.968-48.64l0-52.224q0-28.672 19.968-48.64t48.64-19.968l759.808 0zM892.928 448.512q28.672 0 48.64 19.968t19.968 48.64l0 52.224q0 28.672-19.968 48.64t-48.64 19.968l-759.808 0q-28.672 0-48.64-19.968t-19.968-48.64l0-52.224q0-28.672 19.968-48.64t48.64-19.968l759.808 0zM892.928 769.024q28.672 0 48.64 19.968t19.968 48.64l0 52.224q0 28.672-19.968 48.64t-48.64 19.968l-759.808 0q-28.672 0-48.64-19.968t-19.968-48.64l0-52.224q0-28.672 19.968-48.64t48.64-19.968l759.808 0z" fill="#ffffff" p-id="11155"></path></svg>